<svg xmlns="http://www.w3.org/2000/svg" viewBox="0 0 16 16">
  <g fill="none" stroke="lightgray" stroke-width="1.2">
    <line x1="3" y1="4" x2="8" y2="2.5"/>
    <line x1="3" y1="8" x2="8" y2="2.5"/>
    <line x1="3" y1="8" x2="8" y2="8"/>
    <line x1="3" y1="12" x2="8" y2="8"/>
    <line x1="3" y1="12" x2="8" y2="13.5"/>
    <line x1="8" y1="2.5" x2="13" y2="5"/>
    <line x1="8" y1="8" x2="13" y2="5"/>
    <line x1="8" y1="8" x2="13" y2="11"/>
    <line x1="8" y1="13.5" x2="13" y2="11"/>
  </g>
  <g fill="lightgray">
    <circle cx="3" cy="4" r="1.3"/>
    <circle cx="3" cy="8" r="1.3"/>
    <circle cx="3" cy="12" r="1.3"/>
    <circle cx="8" cy="2.5" r="1.3"/>
    <circle cx="8" cy="8" r="1.3"/>
    <circle cx="8" cy="13.5" r="1.3"/>
    <circle cx="13" cy="5" r="1.3"/>
    <circle cx="13" cy="11" r="1.3"/>
  </g>
</svg>
